<svg height="32" viewBox="0 0 32 32" width="32" xmlns="http://www.w3.org/2000/svg"><path d="m13.927 28.495c0 .703-.567 1.271-1.271 1.271-.697 0-1.271-.568-1.271-1.271s.568-1.271 1.271-1.271c.699 0 1.265.573 1.265 1.271zm7.89 0c0 .703-.567 1.271-1.271 1.271-.703 0-1.271-.568-1.271-1.271s.563-1.271 1.265-1.271c.704 0 1.271.573 1.271 1.271zm6.052-12.208-.208-.276c-.057-.079-.125-.151-.188-.229-.061-.084-.124-.151-.187-.229-.141-.156-.281-.317-.427-.479l-.1-.104-.124-.131-.177-.177c-.021-.025-.043-.047-.068-.073-1.547-1.515-3.339-2.645-5.271-3.337l-.308-.105c.016-.031.032-.072.048-.109.547-1.416.489-2.963-.163-4.339-.656-1.38-1.807-2.4-3.249-2.88-.875-.287-1.641-.427-2.281-.405-.047-.141-.136-.772.661-2.464l-1.609-.948-.385.531c-.437.609-.864 1.193-1.26 1.772-.437-.459-1.021-.735-1.656-.772l-1.881-.115c-.041-.004-.093-.004-.135-.004-1.323 0-2.417 1.025-2.495 2.337l-.12 1.871v.005c-.079 1.369.968 2.552 2.344 2.635l1.333.084c-.089 1.12.099 2.161.541 3.072-1.797.751-3.448 1.871-4.88 3.313-4.407 4.459-4.407 9.339-4.407 13.26v2.371l1.74-1.849c.353 1.239.869 2.407 1.525 3.484h2.261c-1.109-1.484-1.891-3.235-2.24-5.131l2.552-2.708-1.312 4.125 2.317-1.693c4.099-2.979 8.995-3.667 14.547-2.036 2.407.708 4.751.052 5.964-1.677l.14-.219c.12.661.188 1.328.188 1.995 0 2.084-.339 4.917-1.839 7.349h2.145c1.037-2.083 1.579-4.579 1.579-7.349-.005-2.932-1.052-5.896-2.917-8.364zm-16.009-8.032c.161-1.337.771-2.599 1.64-3.957.031.063.073.124.109.187.355.532.953.833 1.599.808.292-.011.808.036 1.647.312.952.313 1.713.989 2.14 1.901.432.907.469 1.921.109 2.864-.235.595-.609 1.095-1.077 1.48l-.543-.672-.005-.005c-.369-.453-.921-.713-1.509-.713-.448 0-.887.156-1.235.443-.443.359-.683.88-.708 1.411-1.605-.724-2.401-2.192-2.172-4.057zm5.739 6.813-.692.568c-.063.047-.125.067-.199.067-.083 0-.177-.036-.235-.109l-.145-.181c-.115-.131-.088-.333.041-.443l.683-.563-1.407-1.729c-.145-.183-.119-.443.057-.584.079-.063.167-.099.261-.099.119 0 .239.052.317.151l3.953 4.865c.145.177.12.437-.057.577-.052.043-.109.073-.167.084-.032.011-.063.016-.093.016-.12 0-.24-.057-.324-.152l-.391-.489-1.396 1.141c-.057.047-.129.072-.203.072-.088 0-.188-.041-.249-.12l-.636-.771c-.109-.135-.088-.339.047-.448l1.401-1.145zm-7.26-8.579-1.593-.104c-.344-.016-.605-.312-.584-.645l.12-1.871c.021-.328.292-.583.615-.583h.031l1.871.125c.167.004.317.077.421.203.109.125.167.276.156.448l-.011.131c-.427.76-.78 1.515-1.031 2.296zm16.697 15.308c-.755 1.072-2.249 1.443-3.9.957-5.177-1.52-9.86-1.208-13.953.933l2.177-6.828-7.053 7.479c.131-5.021 3.272-9.292 7.677-11.084.631.495 1.38.881 2.229 1.12.213.057.432.099.641.136-.245.615-.157 1.333.281 1.875l.099.125c-.229.599-.141 1.296.296 1.828l.631.776c.355.432.88.688 1.437.688.432 0 .849-.152 1.183-.423l.38-.307c.235.099.489.151.756.151.151 0 .296-.016.443-.047.285-.068.561-.204.796-.391.828-.677.959-1.912.276-2.745l-2.224-2.739c.193-.157.376-.329.541-.511.183.052.365.104.537.161.353.129.708.26 1.057.416 1.339.595 2.604 1.469 3.692 2.532.043.041.084.072.115.109l.229.235c.047.052.099.104.147.161.104.115.213.233.317.353l.172.204c.057.067.115.135.172.213l.151.197c.052.068.104.136.156.204 1.12 1.536 1.317 3.109.536 4.213v.005zm-16.744-16.313-1.115-.068.073-1.109 1.109.068z"/></svg>